<svg viewBox="0 0 385 385" fill="none" xmlns="http://www.w3.org/2000/svg">
  <rect x="0.845886" y="0.975098" width="384" height="384" rx="192" fill="#45D086" />
  <mask id="mask0_1:16" style="mask-type:alpha" maskUnits="userSpaceOnUse" x="0" y="0" width="385" height="385">
    <rect x="0.845886" y="0.975098" width="384" height="384" rx="192" fill="#45D086" />
  </mask>
  <g mask="url(#mask0_1:16)">
    <path d="M91.8459 320.475L223.444 382.539C379.891 483.47 463.031 357.554 384.601 202.247L262.346 84.9751L190.346 37.9751L92.8459 111.975L108.346 122.475L109.346 125.975L142.346 181.975L141.346 226.975L151.846 234.475L151.346 251.475L161.346 257.975V272.475L198.346 297.975L200.846 305.975L186.346 296.475L182.846 297.475L168.846 287.975L151.346 288.975L150.346 300.975L129.346 286.475L124.346 291.475L150.346 309.475L151.846 311.975L115.346 287.475L113.846 301.975L92.3459 287.975L91.8459 320.475Z" fill="#38A169" />
  </g>
  <path d="M197.236 19.363C193.734 16.2089 191.772 16.1494 188.272 19.363L147.996 59.023C146.677 60.0991 144.216 59.4176 144.216 58.2495V45.1297C144.216 42.8683 141.902 41.1633 139.568 41.1633H127.07C123.871 41.1633 121.957 42.3248 121.957 45.1297V84.1364L92.8459 112.213H121.351C126.076 111.665 128.181 110.635 130.852 107.447L188.272 51.1369C191.547 48.6979 192.816 48.3528 196.573 51.1369L254.738 109.824C256.253 111.369 258.875 112.164 261.902 112.213H278.933C283.059 111.611 283.864 107.42 281.622 104.623L197.236 19.363Z" fill="white" />
  <path d="M122.243 119.209H111.654C108.957 119.209 108.103 120.264 107.907 122.767C109.034 147.716 115.629 164.55 140.327 189.501V224.84C140.327 226.958 141.075 227.966 143.335 227.966H201.829H240.592C242.853 227.966 243.601 226.958 243.601 224.84V189.501C268.852 167.062 276.572 147.716 277.699 122.767C277.503 120.264 276.648 119.209 273.951 119.209H263.362C261.384 119.209 260.274 120.557 259.799 122.767C253.877 155.129 243.825 167.086 226.504 179.699C225.048 180.758 223.929 182.242 223.929 183.852V209.314C223.929 211.484 223.788 212.332 221.795 212.332H201.829H163.81C161.818 212.332 161.676 211.484 161.676 209.314V183.852C161.676 182.242 160.481 181.199 158.848 180.429C137.208 170.227 131.728 155.129 125.807 122.767C125.332 120.557 124.221 119.209 122.243 119.209Z" fill="white" />
  <rect x="150.27" y="233.901" width="85.3532" height="18.048" rx="3" fill="white" />
  <rect x="160.317" y="255.638" width="64.7774" height="18.048" rx="3" fill="white" />
  <path d="M165.33 120.213C165.33 115.795 168.911 112.213 173.33 112.213H182.608C187.026 112.213 190.608 115.795 190.608 120.213V134.442H173.33C168.911 134.442 165.33 130.86 165.33 126.442V120.213Z" fill="white" />
  <path d="M194.897 122.305C194.897 117.887 198.479 114.305 202.897 114.305H210.061C214.48 114.305 218.061 117.887 218.061 122.305V126.442C218.061 130.86 214.48 134.442 210.061 134.442H194.897V122.305Z" fill="white" />
  <path d="M167.389 145.496C167.389 141.63 170.523 138.496 174.389 138.496H190.61V152.265C190.61 156.131 187.476 159.265 183.61 159.265H174.389C170.523 159.265 167.389 156.131 167.389 152.265V145.496Z" fill="white" />
  <path d="M194.897 138.496H213.239C217.657 138.496 221.238 142.078 221.238 146.496V153.531C221.238 157.949 217.657 161.531 213.238 161.531H202.897C198.479 161.531 194.897 157.949 194.897 153.531V138.496Z" fill="white" />
  <path d="M114.782 287.375C115.678 287.375 116.398 287.647 116.942 288.191C117.486 288.735 117.758 289.439 117.758 290.303V318.047C117.758 318.879 117.47 319.583 116.894 320.159C116.318 320.703 115.582 320.975 114.686 320.975C113.886 320.975 113.198 320.703 112.622 320.159C112.046 319.583 111.758 318.879 111.758 318.047V306.863H96.4459V318.047C96.4459 318.879 96.1419 319.583 95.5339 320.159C94.9259 320.703 94.2219 320.975 93.4219 320.975C92.5579 320.975 91.8379 320.703 91.2619 320.159C90.7179 319.583 90.4459 318.879 90.4459 318.047V290.303C90.4459 289.471 90.7339 288.783 91.3099 288.239C91.8859 287.663 92.6219 287.375 93.5179 287.375C94.3179 287.375 95.0059 287.663 95.5819 288.239C96.1579 288.783 96.4459 289.471 96.4459 290.303V301.343H111.758V290.303C111.758 289.471 112.062 288.783 112.67 288.239C113.278 287.663 113.982 287.375 114.782 287.375ZM129.89 318.047C129.89 318.879 129.618 319.583 129.074 320.159C128.53 320.703 127.842 320.975 127.01 320.975C126.178 320.975 125.49 320.703 124.946 320.159C124.402 319.583 124.13 318.879 124.13 318.047V298.223C124.13 297.391 124.402 296.703 124.946 296.159C125.49 295.583 126.178 295.295 127.01 295.295C127.842 295.295 128.53 295.583 129.074 296.159C129.618 296.703 129.89 297.391 129.89 298.223V318.047ZM126.962 292.175C125.874 292.175 125.106 291.999 124.658 291.647C124.21 291.295 123.986 290.671 123.986 289.775V288.863C123.986 287.967 124.226 287.343 124.706 286.991C125.186 286.639 125.954 286.463 127.01 286.463C128.13 286.463 128.914 286.639 129.362 286.991C129.81 287.343 130.034 287.967 130.034 288.863V289.775C130.034 290.703 129.794 291.343 129.314 291.695C128.866 292.015 128.082 292.175 126.962 292.175ZM176.095 316.271C176.511 316.527 176.831 316.863 177.055 317.279C177.311 317.695 177.439 318.127 177.439 318.575C177.439 319.151 177.247 319.679 176.863 320.159C176.383 320.735 175.647 321.023 174.655 321.023C173.887 321.023 173.183 320.847 172.543 320.495C170.239 319.183 169.087 316.511 169.087 312.479C169.087 311.327 168.703 310.415 167.935 309.743C167.199 309.071 166.127 308.735 164.719 308.735H155.743V318.047C155.743 318.911 155.503 319.615 155.023 320.159C154.575 320.703 153.967 320.975 153.199 320.975C152.271 320.975 151.455 320.703 150.751 320.159C150.079 319.583 149.743 318.879 149.743 318.047V290.303C149.743 289.471 150.015 288.783 150.559 288.239C151.135 287.663 151.839 287.375 152.671 287.375H166.495C168.159 287.375 169.727 287.823 171.199 288.719C172.671 289.615 173.839 290.847 174.703 292.415C175.599 293.983 176.047 295.743 176.047 297.695C176.047 299.295 175.615 300.863 174.751 302.399C173.887 303.903 172.767 305.103 171.391 305.999C173.407 307.407 174.511 309.295 174.703 311.663C174.799 312.175 174.847 312.671 174.847 313.151C174.975 314.143 175.103 314.863 175.231 315.311C175.359 315.727 175.647 316.047 176.095 316.271ZM166.255 303.791C166.831 303.791 167.391 303.519 167.935 302.975C168.479 302.431 168.927 301.711 169.279 300.815C169.631 299.887 169.807 298.895 169.807 297.839C169.807 296.943 169.631 296.127 169.279 295.391C168.927 294.623 168.479 294.015 167.935 293.567C167.391 293.119 166.831 292.895 166.255 292.895H155.743V303.791H166.255ZM200.803 295.295C201.635 295.295 202.323 295.583 202.867 296.159C203.411 296.703 203.683 297.391 203.683 298.223V310.415C203.683 313.871 202.723 316.575 200.803 318.527C198.915 320.479 196.211 321.455 192.691 321.455C189.171 321.455 186.467 320.479 184.579 318.527C182.691 316.575 181.747 313.871 181.747 310.415V298.223C181.747 297.391 182.019 296.703 182.563 296.159C183.107 295.583 183.795 295.295 184.627 295.295C185.459 295.295 186.147 295.583 186.691 296.159C187.235 296.703 187.507 297.391 187.507 298.223V310.415C187.507 312.367 187.939 313.823 188.803 314.783C189.667 315.711 190.963 316.175 192.691 316.175C194.451 316.175 195.763 315.711 196.627 314.783C197.491 313.823 197.923 312.367 197.923 310.415V298.223C197.923 297.391 198.195 296.703 198.739 296.159C199.283 295.583 199.971 295.295 200.803 295.295ZM223.215 294.815C225.423 294.815 227.423 295.391 229.215 296.543C231.007 297.663 232.415 299.231 233.439 301.247C234.495 303.263 235.023 305.551 235.023 308.111C235.023 310.671 234.511 312.975 233.487 315.023C232.463 317.039 231.055 318.623 229.263 319.775C227.503 320.895 225.551 321.455 223.407 321.455C221.871 321.455 220.415 321.151 219.039 320.543C217.695 319.903 216.575 319.135 215.679 318.239V327.647C215.679 328.479 215.407 329.167 214.863 329.711C214.319 330.287 213.631 330.575 212.799 330.575C211.967 330.575 211.279 330.303 210.735 329.759C210.191 329.215 209.919 328.511 209.919 327.647V298.223C209.919 297.391 210.191 296.703 210.735 296.159C211.279 295.583 211.967 295.295 212.799 295.295C213.631 295.295 214.319 295.583 214.863 296.159C215.407 296.703 215.679 297.391 215.679 298.223V298.415C216.447 297.455 217.519 296.623 218.895 295.919C220.271 295.183 221.711 294.815 223.215 294.815ZM222.495 316.175C224.543 316.175 226.223 315.407 227.535 313.871C228.847 312.335 229.503 310.415 229.503 308.111C229.503 305.807 228.847 303.903 227.535 302.399C226.255 300.863 224.575 300.095 222.495 300.095C220.415 300.095 218.719 300.863 217.407 302.399C216.095 303.903 215.439 305.807 215.439 308.111C215.439 310.415 216.095 312.335 217.407 313.871C218.719 315.407 220.415 316.175 222.495 316.175ZM245.249 318.047C245.249 318.879 244.977 319.583 244.433 320.159C243.889 320.703 243.201 320.975 242.369 320.975C241.537 320.975 240.849 320.703 240.305 320.159C239.761 319.583 239.489 318.879 239.489 318.047V298.223C239.489 297.391 239.761 296.703 240.305 296.159C240.849 295.583 241.537 295.295 242.369 295.295C243.201 295.295 243.889 295.583 244.433 296.159C244.977 296.703 245.249 297.391 245.249 298.223V318.047ZM242.321 292.175C241.233 292.175 240.465 291.999 240.017 291.647C239.569 291.295 239.345 290.671 239.345 289.775V288.863C239.345 287.967 239.585 287.343 240.065 286.991C240.545 286.639 241.313 286.463 242.369 286.463C243.489 286.463 244.273 286.639 244.721 286.991C245.169 287.343 245.393 287.967 245.393 288.863V289.775C245.393 290.703 245.153 291.343 244.673 291.695C244.225 292.015 243.441 292.175 242.321 292.175ZM264.513 294.815C265.473 294.815 266.273 295.087 266.913 295.631C267.585 296.175 267.921 296.815 267.921 297.551C267.921 298.543 267.665 299.295 267.153 299.807C266.641 300.287 266.033 300.527 265.329 300.527C264.849 300.527 264.305 300.415 263.697 300.191C263.601 300.159 263.377 300.095 263.025 299.999C262.705 299.903 262.353 299.855 261.969 299.855C261.137 299.855 260.337 300.111 259.569 300.623C258.801 301.135 258.161 301.919 257.649 302.975C257.169 303.999 256.929 305.231 256.929 306.671V318.047C256.929 318.879 256.657 319.583 256.113 320.159C255.569 320.703 254.881 320.975 254.049 320.975C253.217 320.975 252.529 320.703 251.985 320.159C251.441 319.583 251.169 318.879 251.169 318.047V298.223C251.169 297.391 251.441 296.703 251.985 296.159C252.529 295.583 253.217 295.295 254.049 295.295C254.881 295.295 255.569 295.583 256.113 296.159C256.657 296.703 256.929 297.391 256.929 298.223V298.847C257.665 297.535 258.721 296.543 260.097 295.871C261.473 295.167 262.945 294.815 264.513 294.815ZM292.203 294.815C293.035 294.815 293.723 295.087 294.267 295.631C294.811 296.175 295.083 296.879 295.083 297.743V318.047C295.083 318.879 294.811 319.583 294.267 320.159C293.723 320.703 293.035 320.975 292.203 320.975C291.371 320.975 290.683 320.703 290.139 320.159C289.627 319.615 289.355 318.927 289.323 318.095C288.523 319.023 287.435 319.823 286.059 320.495C284.715 321.135 283.291 321.455 281.787 321.455C279.579 321.455 277.579 320.895 275.787 319.775C273.995 318.623 272.571 317.039 271.515 315.023C270.491 313.007 269.979 310.719 269.979 308.159C269.979 305.599 270.491 303.311 271.515 301.295C272.539 299.247 273.931 297.663 275.691 296.543C277.483 295.391 279.451 294.815 281.595 294.815C283.131 294.815 284.571 295.103 285.915 295.679C287.259 296.223 288.395 296.927 289.323 297.791V297.743C289.323 296.911 289.595 296.223 290.139 295.679C290.683 295.103 291.371 294.815 292.203 294.815ZM282.507 316.175C284.587 316.175 286.283 315.423 287.595 313.919C288.907 312.383 289.563 310.463 289.563 308.159C289.563 305.855 288.907 303.935 287.595 302.399C286.283 300.863 284.587 300.095 282.507 300.095C280.459 300.095 278.779 300.863 277.467 302.399C276.155 303.935 275.499 305.855 275.499 308.159C275.499 310.463 276.139 312.383 277.419 313.919C278.731 315.423 280.427 316.175 282.507 316.175Z" fill="white" />
</svg>