<svg viewBox="0 0 1025 1025" fill="none" xmlns="http://www.w3.org/2000/svg">
  <rect x="0.845947" y="0.975098" width="1024" height="1024" fill="#45D086" />
  <path d="M1024.85 1024.98V531.975L651.846 296.975L507.846 202.975L312.846 350.975L343.846 371.975L345.846 378.975L411.846 490.975L409.846 580.975L430.846 595.975L429.846 629.975L449.846 642.975V671.975L523.846 722.975L528.846 738.975L499.846 719.975L492.846 721.975L464.846 702.975L429.846 704.975L427.846 728.975L385.846 699.975L375.846 709.975L427.846 745.975L430.846 750.975L357.846 701.975L354.846 730.975L311.846 702.975L310.846 767.975L583.846 1024.98H1024.85Z" fill="#38A169" />
  <path d="M521.625 165.751C514.622 159.443 510.697 159.324 503.698 165.751L423.145 245.071C420.508 247.223 415.586 245.86 415.586 243.524V217.284C415.586 212.761 410.958 209.351 406.29 209.351H381.294C374.897 209.351 371.068 211.674 371.068 217.284V295.298L312.846 351.452H369.855C379.306 350.355 383.516 348.295 388.858 341.919L503.698 229.299C510.248 224.421 512.786 223.731 520.3 229.299L636.63 346.672C639.66 349.763 644.904 351.354 650.958 351.452H685.02C693.271 350.247 694.882 341.864 690.398 336.271L521.625 165.751Z" fill="white" />
  <path d="M371.641 365.443H350.462C345.068 365.443 343.359 367.553 342.968 372.559C345.222 422.456 358.413 456.124 407.808 506.026V576.704C407.808 580.941 409.303 582.958 413.824 582.958H530.812H608.339C612.86 582.958 614.355 580.941 614.355 576.704V506.026C664.857 461.148 680.297 422.456 682.551 372.559C682.16 367.553 680.451 365.443 675.057 365.443H653.878C649.922 365.443 647.702 368.139 646.752 372.559C634.909 437.282 614.804 461.197 580.161 486.422C577.25 488.542 575.013 491.509 575.013 494.728V545.653C575.013 549.992 574.729 551.688 570.745 551.688H530.812H454.774C450.79 551.688 450.506 549.992 450.506 545.653V494.728C450.506 491.509 448.116 489.422 444.85 487.882C401.57 467.478 390.61 437.282 378.767 372.559C377.817 368.139 375.597 365.443 371.641 365.443Z" fill="white" />
  <rect x="427.693" y="594.826" width="170.706" height="36.096" rx="3" fill="white" />
  <rect x="447.787" y="638.301" width="129.555" height="36.096" rx="3" fill="white" />
  <path d="M457.813 359.451C457.813 355.033 461.395 351.451 465.813 351.451H500.37C504.788 351.451 508.37 355.033 508.37 359.451V395.909H465.813C461.395 395.909 457.813 392.327 457.813 387.909V359.451Z" fill="white" />
  <path d="M516.948 363.636C516.948 359.217 520.53 355.636 524.948 355.636H555.277C559.695 355.636 563.277 359.217 563.277 363.636V387.909C563.277 392.327 559.695 395.909 555.277 395.909H516.948V363.636Z" fill="white" />
  <path d="M461.932 411.017C461.932 407.151 465.066 404.017 468.932 404.017H508.373V438.554C508.373 442.42 505.239 445.554 501.373 445.554H468.932C465.066 445.554 461.932 442.42 461.932 438.554V411.017Z" fill="white" />
  <path d="M516.948 404.017H561.631C566.05 404.017 569.631 407.599 569.631 412.017V442.087C569.631 446.505 566.05 450.087 561.631 450.087H524.948C520.53 450.087 516.948 446.505 516.948 442.087V404.017Z" fill="white" />
  <path d="M356.718 701.775C358.51 701.775 359.95 702.319 361.038 703.407C362.126 704.495 362.67 705.903 362.67 707.631V763.119C362.67 764.783 362.094 766.191 360.942 767.343C359.79 768.431 358.318 768.975 356.526 768.975C354.926 768.975 353.55 768.431 352.398 767.343C351.246 766.191 350.67 764.783 350.67 763.119V740.751H320.046V763.119C320.046 764.783 319.438 766.191 318.222 767.343C317.006 768.431 315.598 768.975 313.998 768.975C312.27 768.975 310.83 768.431 309.678 767.343C308.59 766.191 308.046 764.783 308.046 763.119V707.631C308.046 705.967 308.622 704.591 309.774 703.503C310.926 702.351 312.398 701.775 314.19 701.775C315.79 701.775 317.166 702.351 318.318 703.503C319.47 704.591 320.046 705.967 320.046 707.631V729.711H350.67V707.631C350.67 705.967 351.278 704.591 352.494 703.503C353.71 702.351 355.118 701.775 356.718 701.775ZM386.934 763.119C386.934 764.783 386.39 766.191 385.302 767.343C384.214 768.431 382.838 768.975 381.174 768.975C379.51 768.975 378.134 768.431 377.046 767.343C375.958 766.191 375.414 764.783 375.414 763.119V723.471C375.414 721.807 375.958 720.431 377.046 719.343C378.134 718.191 379.51 717.615 381.174 717.615C382.838 717.615 384.214 718.191 385.302 719.343C386.39 720.431 386.934 721.807 386.934 723.471V763.119ZM381.078 711.375C378.902 711.375 377.366 711.023 376.47 710.319C375.574 709.615 375.126 708.367 375.126 706.575V704.751C375.126 702.959 375.606 701.711 376.566 701.007C377.526 700.303 379.062 699.951 381.174 699.951C383.414 699.951 384.982 700.303 385.878 701.007C386.774 701.711 387.222 702.959 387.222 704.751V706.575C387.222 708.431 386.742 709.711 385.782 710.415C384.886 711.055 383.318 711.375 381.078 711.375ZM479.344 759.567C480.176 760.079 480.816 760.751 481.264 761.583C481.776 762.415 482.032 763.279 482.032 764.175C482.032 765.327 481.648 766.383 480.88 767.343C479.92 768.495 478.448 769.071 476.464 769.071C474.928 769.071 473.52 768.719 472.24 768.015C467.632 765.391 465.328 760.047 465.328 751.983C465.328 749.679 464.56 747.855 463.024 746.511C461.552 745.167 459.408 744.495 456.592 744.495H438.64V763.119C438.64 764.847 438.16 766.255 437.2 767.343C436.304 768.431 435.088 768.975 433.552 768.975C431.696 768.975 430.064 768.431 428.656 767.343C427.312 766.191 426.64 764.783 426.64 763.119V707.631C426.64 705.967 427.184 704.591 428.272 703.503C429.424 702.351 430.832 701.775 432.496 701.775H460.144C463.472 701.775 466.608 702.671 469.552 704.463C472.496 706.255 474.832 708.719 476.56 711.855C478.352 714.991 479.248 718.511 479.248 722.415C479.248 725.615 478.384 728.751 476.656 731.823C474.928 734.831 472.688 737.231 469.936 739.023C473.968 741.839 476.176 745.615 476.56 750.351C476.752 751.375 476.848 752.367 476.848 753.327C477.104 755.311 477.36 756.751 477.616 757.647C477.872 758.479 478.448 759.119 479.344 759.567ZM459.664 734.607C460.816 734.607 461.936 734.063 463.024 732.975C464.112 731.887 465.008 730.447 465.712 728.655C466.416 726.799 466.768 724.815 466.768 722.703C466.768 720.911 466.416 719.279 465.712 717.807C465.008 716.271 464.112 715.055 463.024 714.159C461.936 713.263 460.816 712.815 459.664 712.815H438.64V734.607H459.664ZM528.76 717.615C530.424 717.615 531.8 718.191 532.888 719.343C533.976 720.431 534.52 721.807 534.52 723.471V747.855C534.52 754.767 532.6 760.175 528.76 764.079C524.984 767.983 519.576 769.935 512.536 769.935C505.496 769.935 500.088 767.983 496.312 764.079C492.536 760.175 490.648 754.767 490.648 747.855V723.471C490.648 721.807 491.192 720.431 492.28 719.343C493.368 718.191 494.744 717.615 496.408 717.615C498.072 717.615 499.448 718.191 500.536 719.343C501.624 720.431 502.168 721.807 502.168 723.471V747.855C502.168 751.759 503.032 754.671 504.76 756.591C506.488 758.447 509.08 759.375 512.536 759.375C516.056 759.375 518.68 758.447 520.408 756.591C522.136 754.671 523 751.759 523 747.855V723.471C523 721.807 523.544 720.431 524.632 719.343C525.72 718.191 527.096 717.615 528.76 717.615ZM573.584 716.655C578 716.655 582 717.807 585.584 720.111C589.168 722.351 591.984 725.487 594.032 729.519C596.144 733.551 597.2 738.127 597.2 743.247C597.2 748.367 596.176 752.975 594.128 757.071C592.08 761.103 589.264 764.271 585.68 766.575C582.16 768.815 578.256 769.935 573.968 769.935C570.896 769.935 567.984 769.327 565.232 768.111C562.544 766.831 560.304 765.295 558.512 763.503V782.319C558.512 783.983 557.968 785.359 556.88 786.447C555.792 787.599 554.416 788.175 552.752 788.175C551.088 788.175 549.712 787.631 548.624 786.543C547.536 785.455 546.992 784.047 546.992 782.319V723.471C546.992 721.807 547.536 720.431 548.624 719.343C549.712 718.191 551.088 717.615 552.752 717.615C554.416 717.615 555.792 718.191 556.88 719.343C557.968 720.431 558.512 721.807 558.512 723.471V723.855C560.048 721.935 562.192 720.271 564.944 718.863C567.696 717.391 570.576 716.655 573.584 716.655ZM572.144 759.375C576.24 759.375 579.6 757.839 582.224 754.767C584.848 751.695 586.16 747.855 586.16 743.247C586.16 738.639 584.848 734.831 582.224 731.823C579.664 728.751 576.304 727.215 572.144 727.215C567.984 727.215 564.592 728.751 561.968 731.823C559.344 734.831 558.032 738.639 558.032 743.247C558.032 747.855 559.344 751.695 561.968 754.767C564.592 757.839 567.984 759.375 572.144 759.375ZM617.653 763.119C617.653 764.783 617.109 766.191 616.021 767.343C614.933 768.431 613.557 768.975 611.893 768.975C610.229 768.975 608.853 768.431 607.765 767.343C606.677 766.191 606.133 764.783 606.133 763.119V723.471C606.133 721.807 606.677 720.431 607.765 719.343C608.853 718.191 610.229 717.615 611.893 717.615C613.557 717.615 614.933 718.191 616.021 719.343C617.109 720.431 617.653 721.807 617.653 723.471V763.119ZM611.797 711.375C609.621 711.375 608.085 711.023 607.189 710.319C606.293 709.615 605.845 708.367 605.845 706.575V704.751C605.845 702.959 606.325 701.711 607.285 701.007C608.245 700.303 609.781 699.951 611.893 699.951C614.133 699.951 615.701 700.303 616.597 701.007C617.493 701.711 617.941 702.959 617.941 704.751V706.575C617.941 708.431 617.461 709.711 616.501 710.415C615.605 711.055 614.037 711.375 611.797 711.375ZM656.18 716.655C658.1 716.655 659.7 717.199 660.98 718.287C662.324 719.375 662.996 720.655 662.996 722.127C662.996 724.111 662.484 725.615 661.46 726.639C660.436 727.599 659.22 728.079 657.812 728.079C656.852 728.079 655.764 727.855 654.548 727.407C654.356 727.343 653.908 727.215 653.204 727.023C652.564 726.831 651.86 726.735 651.092 726.735C649.428 726.735 647.828 727.247 646.292 728.271C644.756 729.295 643.476 730.863 642.452 732.975C641.492 735.023 641.012 737.487 641.012 740.367V763.119C641.012 764.783 640.468 766.191 639.38 767.343C638.292 768.431 636.916 768.975 635.252 768.975C633.588 768.975 632.212 768.431 631.124 767.343C630.036 766.191 629.492 764.783 629.492 763.119V723.471C629.492 721.807 630.036 720.431 631.124 719.343C632.212 718.191 633.588 717.615 635.252 717.615C636.916 717.615 638.292 718.191 639.38 719.343C640.468 720.431 641.012 721.807 641.012 723.471V724.719C642.484 722.095 644.596 720.111 647.348 718.767C650.1 717.359 653.044 716.655 656.18 716.655ZM711.56 716.655C713.224 716.655 714.6 717.199 715.688 718.287C716.776 719.375 717.32 720.783 717.32 722.511V763.119C717.32 764.783 716.776 766.191 715.688 767.343C714.6 768.431 713.224 768.975 711.56 768.975C709.896 768.975 708.52 768.431 707.432 767.343C706.408 766.255 705.864 764.879 705.8 763.215C704.2 765.071 702.024 766.671 699.272 768.015C696.584 769.295 693.736 769.935 690.728 769.935C686.312 769.935 682.312 768.815 678.728 766.575C675.144 764.271 672.296 761.103 670.184 757.071C668.136 753.039 667.112 748.463 667.112 743.343C667.112 738.223 668.136 733.647 670.184 729.615C672.232 725.519 675.016 722.351 678.536 720.111C682.12 717.807 686.056 716.655 690.344 716.655C693.416 716.655 696.296 717.231 698.984 718.383C701.672 719.471 703.944 720.879 705.8 722.607V722.511C705.8 720.847 706.344 719.471 707.432 718.383C708.52 717.231 709.896 716.655 711.56 716.655ZM692.168 759.375C696.328 759.375 699.72 757.871 702.344 754.863C704.968 751.791 706.28 747.951 706.28 743.343C706.28 738.735 704.968 734.895 702.344 731.823C699.72 728.751 696.328 727.215 692.168 727.215C688.072 727.215 684.712 728.751 682.088 731.823C679.464 734.895 678.152 738.735 678.152 743.343C678.152 747.951 679.432 751.791 681.992 754.863C684.616 757.871 688.008 759.375 692.168 759.375Z" fill="white" />
</svg>